<?xml version="1.0" encoding="UTF-8"?>
<svg xmlns="http://www.w3.org/2000/svg" version="1.1" width="500" height="500" viewBox="0 0 500 500"><rect x="0" y="0" width="500" height="500" fill="transparent"/><g transform="scale(16.129)"><g transform="translate(1,1)"><g><g transform="translate(3.5,3.5)"><path fill-rule="evenodd" d="M-3.5 -3.5L3.5 -3.5L3.5 3.5L-3.5 3.5ZM-2.5 -2.5L-2.5 2.5L2.5 2.5L2.5 -2.5Z" fill="#000000"/><path fill-rule="evenodd" d="M-1.5 -1.5L1.5 -1.5L1.5 1.5L-1.5 1.5Z" fill="#000000"/></g></g><g><g transform="translate(25.5,3.5)"><g transform="rotate(90)"><path fill-rule="evenodd" d="M-3.5 -3.5L3.5 -3.5L3.5 3.5L-3.5 3.5ZM-2.5 -2.5L-2.5 2.5L2.5 2.5L2.5 -2.5Z" fill="#000000"/><path fill-rule="evenodd" d="M-1.5 -1.5L1.5 -1.5L1.5 1.5L-1.5 1.5Z" fill="#000000"/></g></g></g><g><g transform="translate(3.5,25.5)"><g transform="rotate(-90)"><path fill-rule="evenodd" d="M-3.5 -3.5L3.5 -3.5L3.5 3.5L-3.5 3.5ZM-2.5 -2.5L-2.5 2.5L2.5 2.5L2.5 -2.5Z" fill="#000000"/><path fill-rule="evenodd" d="M-1.5 -1.5L1.5 -1.5L1.5 1.5L-1.5 1.5Z" fill="#313131"/></g></g></g><path fill-rule="evenodd" d="M8 0L8 2L9 2L9 3L8 3L8 4L9 4L9 6L8 6L8 8L5 8L5 10L6 10L6 11L8 11L8 16L6 16L6 15L7 15L7 14L5 14L5 13L3 13L3 12L2 12L2 11L1 11L1 8L0 8L0 14L2 14L2 15L3 15L3 17L2 17L2 16L0 16L0 17L1 17L1 18L0 18L0 19L1 19L1 18L2 18L2 20L1 20L1 21L4 21L4 20L6 20L6 21L8 21L8 24L9 24L9 25L8 25L8 27L9 27L9 28L8 28L8 29L9 29L9 28L10 28L10 29L12 29L12 27L13 27L13 29L14 29L14 28L15 28L15 27L13 27L13 25L11 25L11 28L10 28L10 27L9 27L9 26L10 26L10 24L9 24L9 23L11 23L11 22L9 22L9 21L11 21L11 20L13 20L13 21L12 21L12 22L13 22L13 23L14 23L14 22L16 22L16 23L15 23L15 24L14 24L14 26L17 26L17 27L18 27L18 25L21 25L21 26L22 26L22 27L25 27L25 29L26 29L26 28L27 28L27 29L28 29L28 28L29 28L29 26L28 26L28 25L29 25L29 24L27 24L27 23L28 23L28 21L29 21L29 19L28 19L28 21L27 21L27 18L29 18L29 17L28 17L28 16L29 16L29 15L27 15L27 13L25 13L25 14L24 14L24 13L22 13L22 12L21 12L21 11L22 11L22 10L19 10L19 11L20 11L20 12L21 12L21 15L19 15L19 16L18 16L18 17L19 17L19 16L21 16L21 18L22 18L22 17L23 17L23 16L25 16L25 14L26 14L26 15L27 15L27 16L26 16L26 17L27 17L27 18L25 18L25 19L26 19L26 21L27 21L27 23L26 23L26 22L25 22L25 20L23 20L23 19L24 19L24 18L23 18L23 19L22 19L22 20L20 20L20 19L19 19L19 18L15 18L15 20L16 20L16 21L14 21L14 20L13 20L13 18L14 18L14 17L13 17L13 16L14 16L14 15L16 15L16 14L15 14L15 13L16 13L16 12L17 12L17 15L18 15L18 14L19 14L19 13L18 13L18 11L17 11L17 10L16 10L16 9L17 9L17 6L18 6L18 7L19 7L19 9L21 9L21 8L20 8L20 7L21 7L21 6L20 6L20 5L21 5L21 1L20 1L20 0L19 0L19 2L20 2L20 4L18 4L18 2L17 2L17 1L16 1L16 0L14 0L14 1L13 1L13 0ZM9 1L9 2L10 2L10 3L11 3L11 4L10 4L10 6L9 6L9 8L8 8L8 9L6 9L6 10L8 10L8 11L10 11L10 12L11 12L11 10L9 10L9 8L10 8L10 6L11 6L11 8L12 8L12 9L13 9L13 10L12 10L12 11L14 11L14 12L12 12L12 13L9 13L9 15L10 15L10 17L11 17L11 16L13 16L13 15L14 15L14 14L13 14L13 13L15 13L15 11L14 11L14 10L15 10L15 9L16 9L16 8L15 8L15 7L16 7L16 5L17 5L17 3L16 3L16 5L14 5L14 3L15 3L15 1L14 1L14 3L13 3L13 2L12 2L12 3L11 3L11 2L10 2L10 1ZM11 5L11 6L12 6L12 7L13 7L13 9L14 9L14 7L15 7L15 6L14 6L14 7L13 7L13 5ZM19 6L19 7L20 7L20 6ZM2 8L2 9L4 9L4 8ZM22 8L22 9L23 9L23 11L26 11L26 8L25 8L25 10L24 10L24 9L23 9L23 8ZM27 8L27 12L28 12L28 9L29 9L29 8ZM4 11L4 12L5 12L5 11ZM1 12L1 13L2 13L2 14L3 14L3 15L4 15L4 16L5 16L5 17L3 17L3 20L4 20L4 18L5 18L5 17L6 17L6 18L7 18L7 19L6 19L6 20L8 20L8 18L9 18L9 17L6 17L6 16L5 16L5 15L4 15L4 14L3 14L3 13L2 13L2 12ZM6 12L6 13L7 13L7 12ZM10 14L10 15L11 15L11 14ZM12 14L12 15L13 15L13 14ZM16 16L16 17L17 17L17 16ZM12 17L12 18L10 18L10 19L9 19L9 20L11 20L11 19L12 19L12 18L13 18L13 17ZM16 19L16 20L17 20L17 24L16 24L16 25L18 25L18 23L19 23L19 24L20 24L20 23L19 23L19 22L20 22L20 21L19 21L19 20L18 20L18 19ZM18 21L18 22L19 22L19 21ZM21 21L21 24L24 24L24 21ZM22 22L22 23L23 23L23 22ZM25 24L25 26L26 26L26 24ZM22 25L22 26L24 26L24 25ZM19 26L19 29L21 29L21 28L20 28L20 26ZM27 26L27 28L28 28L28 26ZM16 28L16 29L17 29L17 28ZM22 28L22 29L24 29L24 28Z" fill="#000000"/></g></g></svg>
